<mxfile host="app.diagrams.net" modified="2024-05-10T08:29:56.000Z" agent="Mozilla/5.0 (Windows NT 10.0; Win64; x64) AppleWebKit/537.36 (KHTML, like Gecko) Chrome/124.0.0.0 Safari/537.36" etag="7O5turLGBEZgqpwO8zMh" version="24.3.1" type="device">
  <diagram name="Страница — 1" id="BS8vcZMVBj0d2dh9ncKE">
    <mxGraphModel dx="2645" dy="822" grid="1" gridSize="10" guides="1" tooltips="1" connect="1" arrows="1" fold="1" page="1" pageScale="1" pageWidth="827" pageHeight="1169" math="0" shadow="0">
      <root>
        <mxCell id="0" />
        <mxCell id="1" parent="0" />
        <mxCell id="nzGZyDX1oVs2PWnSbx05-1" value="User" style="shape=umlActor;verticalLabelPosition=bottom;verticalAlign=top;html=1;outlineConnect=0;" parent="1" vertex="1">
          <mxGeometry x="325" y="230" width="30" height="60" as="geometry" />
        </mxCell>
        <mxCell id="nzGZyDX1oVs2PWnSbx05-2" value="Admin&lt;div&gt;&lt;br&gt;&lt;/div&gt;" style="shape=umlActor;verticalLabelPosition=bottom;verticalAlign=top;html=1;outlineConnect=0;" parent="1" vertex="1">
          <mxGeometry x="325" y="530" width="30" height="60" as="geometry" />
        </mxCell>
        <mxCell id="nzGZyDX1oVs2PWnSbx05-5" value="" style="endArrow=classic;html=1;rounded=0;curved=0;" parent="1" edge="1">
          <mxGeometry width="50" height="50" relative="1" as="geometry">
            <mxPoint x="340" y="520" as="sourcePoint" />
            <mxPoint x="339.66" y="320" as="targetPoint" />
          </mxGeometry>
        </mxCell>
        <mxCell id="nzGZyDX1oVs2PWnSbx05-7" value="Авторизация" style="ellipse;whiteSpace=wrap;html=1;" parent="1" vertex="1">
          <mxGeometry x="150" y="160" width="120" height="80" as="geometry" />
        </mxCell>
        <mxCell id="nzGZyDX1oVs2PWnSbx05-8" value="Регистрация" style="ellipse;whiteSpace=wrap;html=1;" parent="1" vertex="1">
          <mxGeometry x="414" y="160" width="120" height="80" as="geometry" />
        </mxCell>
        <mxCell id="nzGZyDX1oVs2PWnSbx05-9" value="Ввести пароль" style="ellipse;whiteSpace=wrap;html=1;" parent="1" vertex="1">
          <mxGeometry x="280" y="100" width="120" height="80" as="geometry" />
        </mxCell>
        <mxCell id="nzGZyDX1oVs2PWnSbx05-10" value="Ввести логин" style="ellipse;whiteSpace=wrap;html=1;" parent="1" vertex="1">
          <mxGeometry x="280" y="10" width="120" height="80" as="geometry" />
        </mxCell>
        <mxCell id="nzGZyDX1oVs2PWnSbx05-12" value="" style="endArrow=classic;html=1;rounded=0;exitX=0.5;exitY=0;exitDx=0;exitDy=0;entryX=0;entryY=0.5;entryDx=0;entryDy=0;" parent="1" source="nzGZyDX1oVs2PWnSbx05-7" target="nzGZyDX1oVs2PWnSbx05-9" edge="1">
          <mxGeometry width="50" height="50" relative="1" as="geometry">
            <mxPoint x="200" y="160" as="sourcePoint" />
            <mxPoint x="250" y="110" as="targetPoint" />
          </mxGeometry>
        </mxCell>
        <mxCell id="nzGZyDX1oVs2PWnSbx05-20" value="Включить" style="edgeLabel;html=1;align=center;verticalAlign=middle;resizable=0;points=[];" parent="nzGZyDX1oVs2PWnSbx05-12" vertex="1" connectable="0">
          <mxGeometry x="0.0564" y="2" relative="1" as="geometry">
            <mxPoint as="offset" />
          </mxGeometry>
        </mxCell>
        <mxCell id="nzGZyDX1oVs2PWnSbx05-13" value="" style="endArrow=classic;html=1;rounded=0;entryX=0;entryY=0.5;entryDx=0;entryDy=0;" parent="1" target="nzGZyDX1oVs2PWnSbx05-10" edge="1">
          <mxGeometry width="50" height="50" relative="1" as="geometry">
            <mxPoint x="210" y="160" as="sourcePoint" />
            <mxPoint x="240" y="90" as="targetPoint" />
          </mxGeometry>
        </mxCell>
        <mxCell id="nzGZyDX1oVs2PWnSbx05-18" value="Включить" style="edgeLabel;html=1;align=center;verticalAlign=middle;resizable=0;points=[];" parent="nzGZyDX1oVs2PWnSbx05-13" vertex="1" connectable="0">
          <mxGeometry x="0.012" y="1" relative="1" as="geometry">
            <mxPoint as="offset" />
          </mxGeometry>
        </mxCell>
        <mxCell id="nzGZyDX1oVs2PWnSbx05-14" value="" style="endArrow=classic;html=1;rounded=0;exitX=0.5;exitY=0;exitDx=0;exitDy=0;entryX=1;entryY=0.5;entryDx=0;entryDy=0;" parent="1" source="nzGZyDX1oVs2PWnSbx05-8" target="nzGZyDX1oVs2PWnSbx05-9" edge="1">
          <mxGeometry width="50" height="50" relative="1" as="geometry">
            <mxPoint x="550" y="110" as="sourcePoint" />
            <mxPoint x="600" y="60" as="targetPoint" />
          </mxGeometry>
        </mxCell>
        <mxCell id="nzGZyDX1oVs2PWnSbx05-23" value="Включить" style="edgeLabel;html=1;align=center;verticalAlign=middle;resizable=0;points=[];" parent="nzGZyDX1oVs2PWnSbx05-14" vertex="1" connectable="0">
          <mxGeometry x="0.2389" y="1" relative="1" as="geometry">
            <mxPoint as="offset" />
          </mxGeometry>
        </mxCell>
        <mxCell id="nzGZyDX1oVs2PWnSbx05-15" value="" style="endArrow=classic;html=1;rounded=0;exitX=0.5;exitY=0;exitDx=0;exitDy=0;entryX=1;entryY=0.5;entryDx=0;entryDy=0;" parent="1" source="nzGZyDX1oVs2PWnSbx05-8" target="nzGZyDX1oVs2PWnSbx05-10" edge="1">
          <mxGeometry width="50" height="50" relative="1" as="geometry">
            <mxPoint x="460" y="120" as="sourcePoint" />
            <mxPoint x="510" y="70" as="targetPoint" />
          </mxGeometry>
        </mxCell>
        <mxCell id="nzGZyDX1oVs2PWnSbx05-22" value="Включить" style="edgeLabel;html=1;align=center;verticalAlign=middle;resizable=0;points=[];" parent="nzGZyDX1oVs2PWnSbx05-15" vertex="1" connectable="0">
          <mxGeometry x="0.0922" y="2" relative="1" as="geometry">
            <mxPoint as="offset" />
          </mxGeometry>
        </mxCell>
        <mxCell id="nzGZyDX1oVs2PWnSbx05-16" value="" style="endArrow=none;html=1;rounded=0;" parent="1" target="nzGZyDX1oVs2PWnSbx05-8" edge="1">
          <mxGeometry width="50" height="50" relative="1" as="geometry">
            <mxPoint x="360" y="260" as="sourcePoint" />
            <mxPoint x="520" y="270" as="targetPoint" />
          </mxGeometry>
        </mxCell>
        <mxCell id="nzGZyDX1oVs2PWnSbx05-17" value="" style="endArrow=none;html=1;rounded=0;entryX=0.879;entryY=0.823;entryDx=0;entryDy=0;entryPerimeter=0;" parent="1" target="nzGZyDX1oVs2PWnSbx05-7" edge="1">
          <mxGeometry width="50" height="50" relative="1" as="geometry">
            <mxPoint x="320" y="260" as="sourcePoint" />
            <mxPoint x="310" y="280" as="targetPoint" />
          </mxGeometry>
        </mxCell>
        <mxCell id="nzGZyDX1oVs2PWnSbx05-24" value="Работа с конфигурациями" style="ellipse;whiteSpace=wrap;html=1;" parent="1" vertex="1">
          <mxGeometry x="60" y="230.01" width="110" height="73.34" as="geometry" />
        </mxCell>
        <mxCell id="nzGZyDX1oVs2PWnSbx05-25" value="Создать конфигурацию" style="ellipse;whiteSpace=wrap;html=1;" parent="1" vertex="1">
          <mxGeometry x="-50" y="120.00000000000001" width="100" height="66.67" as="geometry" />
        </mxCell>
        <mxCell id="nzGZyDX1oVs2PWnSbx05-26" value="Удалить конфигурацию" style="ellipse;whiteSpace=wrap;html=1;" parent="1" vertex="1">
          <mxGeometry x="-130" y="233.34000000000003" width="100" height="66.67" as="geometry" />
        </mxCell>
        <mxCell id="nzGZyDX1oVs2PWnSbx05-27" value="Редактировать конфигурацию" style="ellipse;whiteSpace=wrap;html=1;" parent="1" vertex="1">
          <mxGeometry x="-50" y="346.67" width="100" height="66.67" as="geometry" />
        </mxCell>
        <mxCell id="nzGZyDX1oVs2PWnSbx05-28" value="" style="endArrow=classic;html=1;rounded=0;exitX=0.5;exitY=0;exitDx=0;exitDy=0;entryX=0;entryY=1;entryDx=0;entryDy=0;" parent="1" source="nzGZyDX1oVs2PWnSbx05-27" target="nzGZyDX1oVs2PWnSbx05-24" edge="1">
          <mxGeometry width="50" height="50" relative="1" as="geometry">
            <mxPoint x="80" y="366.67" as="sourcePoint" />
            <mxPoint x="130" y="316.67" as="targetPoint" />
          </mxGeometry>
        </mxCell>
        <mxCell id="nzGZyDX1oVs2PWnSbx05-33" value="Расширить" style="edgeLabel;html=1;align=center;verticalAlign=middle;resizable=0;points=[];" parent="nzGZyDX1oVs2PWnSbx05-28" vertex="1" connectable="0">
          <mxGeometry x="0.0087" y="3" relative="1" as="geometry">
            <mxPoint as="offset" />
          </mxGeometry>
        </mxCell>
        <mxCell id="nzGZyDX1oVs2PWnSbx05-29" value="" style="endArrow=classic;html=1;rounded=0;exitX=1;exitY=0.5;exitDx=0;exitDy=0;entryX=0;entryY=0.5;entryDx=0;entryDy=0;" parent="1" source="nzGZyDX1oVs2PWnSbx05-26" target="nzGZyDX1oVs2PWnSbx05-24" edge="1">
          <mxGeometry width="50" height="50" relative="1" as="geometry">
            <mxPoint x="30" y="346.67" as="sourcePoint" />
            <mxPoint x="80" y="296.67" as="targetPoint" />
          </mxGeometry>
        </mxCell>
        <mxCell id="nzGZyDX1oVs2PWnSbx05-31" value="Расширить" style="edgeLabel;html=1;align=center;verticalAlign=middle;resizable=0;points=[];" parent="nzGZyDX1oVs2PWnSbx05-29" vertex="1" connectable="0">
          <mxGeometry x="-0.0377" y="1" relative="1" as="geometry">
            <mxPoint as="offset" />
          </mxGeometry>
        </mxCell>
        <mxCell id="nzGZyDX1oVs2PWnSbx05-30" value="" style="endArrow=classic;html=1;rounded=0;entryX=0;entryY=0;entryDx=0;entryDy=0;exitX=0.5;exitY=1;exitDx=0;exitDy=0;" parent="1" source="nzGZyDX1oVs2PWnSbx05-25" target="nzGZyDX1oVs2PWnSbx05-24" edge="1">
          <mxGeometry width="50" height="50" relative="1" as="geometry">
            <mxPoint x="40" y="226.67000000000002" as="sourcePoint" />
            <mxPoint x="120" y="316.67" as="targetPoint" />
          </mxGeometry>
        </mxCell>
        <mxCell id="nzGZyDX1oVs2PWnSbx05-32" value="Расширить" style="edgeLabel;html=1;align=center;verticalAlign=middle;resizable=0;points=[];" parent="nzGZyDX1oVs2PWnSbx05-30" vertex="1" connectable="0">
          <mxGeometry x="-0.0723" y="-1" relative="1" as="geometry">
            <mxPoint as="offset" />
          </mxGeometry>
        </mxCell>
        <mxCell id="nzGZyDX1oVs2PWnSbx05-34" value="" style="endArrow=none;html=1;rounded=0;" parent="1" source="nzGZyDX1oVs2PWnSbx05-24" edge="1">
          <mxGeometry width="50" height="50" relative="1" as="geometry">
            <mxPoint x="200" y="390" as="sourcePoint" />
            <mxPoint x="320" y="267" as="targetPoint" />
          </mxGeometry>
        </mxCell>
        <mxCell id="nzGZyDX1oVs2PWnSbx05-35" value="Написать отзыв" style="ellipse;whiteSpace=wrap;html=1;" parent="1" vertex="1">
          <mxGeometry x="534" y="231.68" width="105" height="70" as="geometry" />
        </mxCell>
        <mxCell id="nzGZyDX1oVs2PWnSbx05-36" value="" style="endArrow=none;html=1;rounded=0;" parent="1" target="nzGZyDX1oVs2PWnSbx05-35" edge="1">
          <mxGeometry width="50" height="50" relative="1" as="geometry">
            <mxPoint x="360" y="267" as="sourcePoint" />
            <mxPoint x="520" y="270" as="targetPoint" />
          </mxGeometry>
        </mxCell>
        <mxCell id="nzGZyDX1oVs2PWnSbx05-37" value="Просмотр комплектующих" style="ellipse;whiteSpace=wrap;html=1;" parent="1" vertex="1">
          <mxGeometry x="160" y="320" width="120" height="80" as="geometry" />
        </mxCell>
        <mxCell id="nzGZyDX1oVs2PWnSbx05-38" value="Работа с чатом поддержки" style="ellipse;whiteSpace=wrap;html=1;" parent="1" vertex="1">
          <mxGeometry x="400" y="320" width="120" height="80" as="geometry" />
        </mxCell>
        <mxCell id="nzGZyDX1oVs2PWnSbx05-39" value="" style="endArrow=none;html=1;rounded=0;exitX=1;exitY=0;exitDx=0;exitDy=0;" parent="1" source="nzGZyDX1oVs2PWnSbx05-37" edge="1">
          <mxGeometry width="50" height="50" relative="1" as="geometry">
            <mxPoint x="230" y="330" as="sourcePoint" />
            <mxPoint x="320" y="280" as="targetPoint" />
          </mxGeometry>
        </mxCell>
        <mxCell id="nzGZyDX1oVs2PWnSbx05-40" value="" style="endArrow=none;html=1;rounded=0;entryX=0;entryY=0;entryDx=0;entryDy=0;" parent="1" target="nzGZyDX1oVs2PWnSbx05-38" edge="1">
          <mxGeometry width="50" height="50" relative="1" as="geometry">
            <mxPoint x="360" y="280" as="sourcePoint" />
            <mxPoint x="480" y="280" as="targetPoint" />
          </mxGeometry>
        </mxCell>
        <mxCell id="nzGZyDX1oVs2PWnSbx05-41" value="Сравнение комплектующих" style="ellipse;whiteSpace=wrap;html=1;" parent="1" vertex="1">
          <mxGeometry x="40" y="410" width="100" height="70" as="geometry" />
        </mxCell>
        <mxCell id="nzGZyDX1oVs2PWnSbx05-42" value="Просмотр комплектующих" style="ellipse;whiteSpace=wrap;html=1;" parent="1" vertex="1">
          <mxGeometry x="170" y="440" width="100" height="70" as="geometry" />
        </mxCell>
        <mxCell id="nzGZyDX1oVs2PWnSbx05-43" value="" style="endArrow=classic;html=1;rounded=0;entryX=0;entryY=1;entryDx=0;entryDy=0;exitX=1;exitY=0;exitDx=0;exitDy=0;" parent="1" source="nzGZyDX1oVs2PWnSbx05-41" target="nzGZyDX1oVs2PWnSbx05-37" edge="1">
          <mxGeometry width="50" height="50" relative="1" as="geometry">
            <mxPoint x="143.14411842862683" y="430.0027613442984" as="sourcePoint" />
            <mxPoint x="170" y="386.7900000000001" as="targetPoint" />
          </mxGeometry>
        </mxCell>
        <mxCell id="nzGZyDX1oVs2PWnSbx05-50" value="Расширить" style="edgeLabel;html=1;align=center;verticalAlign=middle;resizable=0;points=[];" parent="nzGZyDX1oVs2PWnSbx05-43" vertex="1" connectable="0">
          <mxGeometry x="0.0781" y="-2" relative="1" as="geometry">
            <mxPoint y="-1" as="offset" />
          </mxGeometry>
        </mxCell>
        <mxCell id="nzGZyDX1oVs2PWnSbx05-44" value="" style="endArrow=classic;html=1;rounded=0;entryX=0.5;entryY=1;entryDx=0;entryDy=0;exitX=0.5;exitY=0;exitDx=0;exitDy=0;" parent="1" source="nzGZyDX1oVs2PWnSbx05-42" target="nzGZyDX1oVs2PWnSbx05-37" edge="1">
          <mxGeometry width="50" height="50" relative="1" as="geometry">
            <mxPoint x="155" y="420" as="sourcePoint" />
            <mxPoint x="188" y="398" as="targetPoint" />
          </mxGeometry>
        </mxCell>
        <mxCell id="nzGZyDX1oVs2PWnSbx05-51" value="Расширить" style="edgeLabel;html=1;align=center;verticalAlign=middle;resizable=0;points=[];" parent="nzGZyDX1oVs2PWnSbx05-44" vertex="1" connectable="0">
          <mxGeometry x="-0.1933" y="3" relative="1" as="geometry">
            <mxPoint as="offset" />
          </mxGeometry>
        </mxCell>
        <mxCell id="nzGZyDX1oVs2PWnSbx05-46" value="Отправка сообщений" style="ellipse;whiteSpace=wrap;html=1;" parent="1" vertex="1">
          <mxGeometry x="410" y="440" width="100" height="70" as="geometry" />
        </mxCell>
        <mxCell id="nzGZyDX1oVs2PWnSbx05-47" value="Чтение сообщений" style="ellipse;whiteSpace=wrap;html=1;" parent="1" vertex="1">
          <mxGeometry x="539" y="410" width="100" height="70" as="geometry" />
        </mxCell>
        <mxCell id="nzGZyDX1oVs2PWnSbx05-48" value="" style="endArrow=classic;html=1;rounded=0;entryX=0.5;entryY=1;entryDx=0;entryDy=0;exitX=0.5;exitY=0;exitDx=0;exitDy=0;" parent="1" source="nzGZyDX1oVs2PWnSbx05-46" target="nzGZyDX1oVs2PWnSbx05-38" edge="1">
          <mxGeometry width="50" height="50" relative="1" as="geometry">
            <mxPoint x="430" y="460" as="sourcePoint" />
            <mxPoint x="480" y="410" as="targetPoint" />
            <Array as="points">
              <mxPoint x="460" y="410" />
            </Array>
          </mxGeometry>
        </mxCell>
        <mxCell id="nzGZyDX1oVs2PWnSbx05-52" value="Расширить" style="edgeLabel;html=1;align=center;verticalAlign=middle;resizable=0;points=[];" parent="nzGZyDX1oVs2PWnSbx05-48" vertex="1" connectable="0">
          <mxGeometry x="0.0894" y="-1" relative="1" as="geometry">
            <mxPoint as="offset" />
          </mxGeometry>
        </mxCell>
        <mxCell id="nzGZyDX1oVs2PWnSbx05-49" value="" style="endArrow=classic;html=1;rounded=0;exitX=0;exitY=0;exitDx=0;exitDy=0;entryX=1;entryY=1;entryDx=0;entryDy=0;" parent="1" source="nzGZyDX1oVs2PWnSbx05-47" target="nzGZyDX1oVs2PWnSbx05-38" edge="1">
          <mxGeometry width="50" height="50" relative="1" as="geometry">
            <mxPoint x="470" y="460" as="sourcePoint" />
            <mxPoint x="520" y="410" as="targetPoint" />
          </mxGeometry>
        </mxCell>
        <mxCell id="nzGZyDX1oVs2PWnSbx05-53" value="Расширить" style="edgeLabel;html=1;align=center;verticalAlign=middle;resizable=0;points=[];" parent="nzGZyDX1oVs2PWnSbx05-49" vertex="1" connectable="0">
          <mxGeometry x="-0.0444" y="-1" relative="1" as="geometry">
            <mxPoint as="offset" />
          </mxGeometry>
        </mxCell>
        <mxCell id="nzGZyDX1oVs2PWnSbx05-54" value="Управление пользователями" style="ellipse;whiteSpace=wrap;html=1;" parent="1" vertex="1">
          <mxGeometry x="287.5" y="680" width="105" height="70" as="geometry" />
        </mxCell>
        <mxCell id="nzGZyDX1oVs2PWnSbx05-55" value="Заблокировать пользователя" style="ellipse;whiteSpace=wrap;html=1;" parent="1" vertex="1">
          <mxGeometry x="175" y="766.67" width="105" height="70" as="geometry" />
        </mxCell>
        <mxCell id="nzGZyDX1oVs2PWnSbx05-56" value="Разблокировать пользователя" style="ellipse;whiteSpace=wrap;html=1;" parent="1" vertex="1">
          <mxGeometry x="400" y="765" width="110" height="73.33" as="geometry" />
        </mxCell>
        <mxCell id="nzGZyDX1oVs2PWnSbx05-57" value="" style="endArrow=classic;html=1;rounded=0;exitX=1;exitY=0;exitDx=0;exitDy=0;entryX=0.5;entryY=1;entryDx=0;entryDy=0;" parent="1" source="nzGZyDX1oVs2PWnSbx05-55" target="nzGZyDX1oVs2PWnSbx05-54" edge="1">
          <mxGeometry width="50" height="50" relative="1" as="geometry">
            <mxPoint x="310" y="820" as="sourcePoint" />
            <mxPoint x="360" y="770" as="targetPoint" />
          </mxGeometry>
        </mxCell>
        <mxCell id="nzGZyDX1oVs2PWnSbx05-59" value="Расширить" style="edgeLabel;html=1;align=center;verticalAlign=middle;resizable=0;points=[];" parent="nzGZyDX1oVs2PWnSbx05-57" vertex="1" connectable="0">
          <mxGeometry x="-0.0774" y="1" relative="1" as="geometry">
            <mxPoint as="offset" />
          </mxGeometry>
        </mxCell>
        <mxCell id="nzGZyDX1oVs2PWnSbx05-60" value="" style="endArrow=classic;html=1;rounded=0;exitX=0;exitY=0;exitDx=0;exitDy=0;entryX=0.5;entryY=1;entryDx=0;entryDy=0;" parent="1" source="nzGZyDX1oVs2PWnSbx05-56" target="nzGZyDX1oVs2PWnSbx05-54" edge="1">
          <mxGeometry width="50" height="50" relative="1" as="geometry">
            <mxPoint x="305" y="790" as="sourcePoint" />
            <mxPoint x="350" y="760" as="targetPoint" />
          </mxGeometry>
        </mxCell>
        <mxCell id="nzGZyDX1oVs2PWnSbx05-61" value="Расширить" style="edgeLabel;html=1;align=center;verticalAlign=middle;resizable=0;points=[];" parent="nzGZyDX1oVs2PWnSbx05-60" vertex="1" connectable="0">
          <mxGeometry x="-0.0774" y="1" relative="1" as="geometry">
            <mxPoint as="offset" />
          </mxGeometry>
        </mxCell>
        <mxCell id="nzGZyDX1oVs2PWnSbx05-62" value="" style="endArrow=none;html=1;rounded=0;exitX=0.5;exitY=0;exitDx=0;exitDy=0;" parent="1" source="nzGZyDX1oVs2PWnSbx05-54" edge="1">
          <mxGeometry width="50" height="50" relative="1" as="geometry">
            <mxPoint x="340" y="670" as="sourcePoint" />
            <mxPoint x="340" y="620" as="targetPoint" />
          </mxGeometry>
        </mxCell>
        <mxCell id="nzGZyDX1oVs2PWnSbx05-63" value="Управление процессорами" style="ellipse;whiteSpace=wrap;html=1;" parent="1" vertex="1">
          <mxGeometry x="440" y="520" width="120" height="80" as="geometry" />
        </mxCell>
        <mxCell id="nzGZyDX1oVs2PWnSbx05-64" value="Управление материнскими платами" style="ellipse;whiteSpace=wrap;html=1;" parent="1" vertex="1">
          <mxGeometry x="120" y="520" width="120" height="80" as="geometry" />
        </mxCell>
        <mxCell id="nzGZyDX1oVs2PWnSbx05-65" value="Управление Отзывами" style="ellipse;whiteSpace=wrap;html=1;" parent="1" vertex="1">
          <mxGeometry x="440" y="640" width="120" height="80" as="geometry" />
        </mxCell>
        <mxCell id="nzGZyDX1oVs2PWnSbx05-66" value="Управление Видеокартами" style="ellipse;whiteSpace=wrap;html=1;" parent="1" vertex="1">
          <mxGeometry x="120" y="640" width="120" height="80" as="geometry" />
        </mxCell>
        <mxCell id="nzGZyDX1oVs2PWnSbx05-67" value="" style="endArrow=none;html=1;rounded=0;exitX=1;exitY=0.5;exitDx=0;exitDy=0;" parent="1" source="nzGZyDX1oVs2PWnSbx05-64" edge="1">
          <mxGeometry width="50" height="50" relative="1" as="geometry">
            <mxPoint x="240" y="630" as="sourcePoint" />
            <mxPoint x="320" y="560" as="targetPoint" />
          </mxGeometry>
        </mxCell>
        <mxCell id="nzGZyDX1oVs2PWnSbx05-68" value="" style="endArrow=none;html=1;rounded=0;exitX=1;exitY=0;exitDx=0;exitDy=0;" parent="1" source="nzGZyDX1oVs2PWnSbx05-66" edge="1">
          <mxGeometry width="50" height="50" relative="1" as="geometry">
            <mxPoint x="250" y="570" as="sourcePoint" />
            <mxPoint x="320" y="580" as="targetPoint" />
          </mxGeometry>
        </mxCell>
        <mxCell id="nzGZyDX1oVs2PWnSbx05-69" value="" style="endArrow=none;html=1;rounded=0;entryX=0.116;entryY=0.119;entryDx=0;entryDy=0;entryPerimeter=0;" parent="1" target="nzGZyDX1oVs2PWnSbx05-65" edge="1">
          <mxGeometry width="50" height="50" relative="1" as="geometry">
            <mxPoint x="360" y="580" as="sourcePoint" />
            <mxPoint x="480" y="568" as="targetPoint" />
          </mxGeometry>
        </mxCell>
        <mxCell id="nzGZyDX1oVs2PWnSbx05-70" value="" style="endArrow=none;html=1;rounded=0;" parent="1" target="nzGZyDX1oVs2PWnSbx05-63" edge="1">
          <mxGeometry width="50" height="50" relative="1" as="geometry">
            <mxPoint x="360" y="560" as="sourcePoint" />
            <mxPoint x="410" y="520" as="targetPoint" />
          </mxGeometry>
        </mxCell>
        <mxCell id="nzGZyDX1oVs2PWnSbx05-71" value="Создать" style="ellipse;whiteSpace=wrap;html=1;" parent="1" vertex="1">
          <mxGeometry x="-40" y="466.67" width="80" height="53.33" as="geometry" />
        </mxCell>
        <mxCell id="nzGZyDX1oVs2PWnSbx05-72" value="Удалить" style="ellipse;whiteSpace=wrap;html=1;" parent="1" vertex="1">
          <mxGeometry x="-60" y="533.34" width="80" height="53.33" as="geometry" />
        </mxCell>
        <mxCell id="nzGZyDX1oVs2PWnSbx05-73" value="Обновить" style="ellipse;whiteSpace=wrap;html=1;" parent="1" vertex="1">
          <mxGeometry x="-40" y="599.9999999999999" width="80" height="53.33" as="geometry" />
        </mxCell>
        <mxCell id="nzGZyDX1oVs2PWnSbx05-74" value="Создать&lt;br&gt;процессор" style="ellipse;whiteSpace=wrap;html=1;" parent="1" vertex="1">
          <mxGeometry x="640" y="466.67" width="80" height="53.33" as="geometry" />
        </mxCell>
        <mxCell id="nzGZyDX1oVs2PWnSbx05-75" value="Удалить&lt;div&gt;процессор&lt;br&gt;&lt;/div&gt;" style="ellipse;whiteSpace=wrap;html=1;" parent="1" vertex="1">
          <mxGeometry x="660" y="529.9999999999999" width="80" height="53.33" as="geometry" />
        </mxCell>
        <mxCell id="nzGZyDX1oVs2PWnSbx05-76" value="Обновить&lt;div&gt;процессор&lt;br&gt;&lt;/div&gt;" style="ellipse;whiteSpace=wrap;html=1;" parent="1" vertex="1">
          <mxGeometry x="640" y="599.9999999999999" width="80" height="53.33" as="geometry" />
        </mxCell>
        <mxCell id="nzGZyDX1oVs2PWnSbx05-78" value="" style="endArrow=classic;html=1;rounded=0;exitX=1;exitY=1;exitDx=0;exitDy=0;entryX=0;entryY=0;entryDx=0;entryDy=0;" parent="1" source="nzGZyDX1oVs2PWnSbx05-71" target="nzGZyDX1oVs2PWnSbx05-64" edge="1">
          <mxGeometry width="50" height="50" relative="1" as="geometry">
            <mxPoint x="135" y="430" as="sourcePoint" />
            <mxPoint x="120" y="510" as="targetPoint" />
          </mxGeometry>
        </mxCell>
        <mxCell id="nzGZyDX1oVs2PWnSbx05-79" value="Расширить" style="edgeLabel;html=1;align=center;verticalAlign=middle;resizable=0;points=[];" parent="nzGZyDX1oVs2PWnSbx05-78" vertex="1" connectable="0">
          <mxGeometry x="0.0781" y="-2" relative="1" as="geometry">
            <mxPoint y="-1" as="offset" />
          </mxGeometry>
        </mxCell>
        <mxCell id="nzGZyDX1oVs2PWnSbx05-80" value="" style="endArrow=classic;html=1;rounded=0;entryX=0;entryY=0.5;entryDx=0;entryDy=0;exitX=1;exitY=0.5;exitDx=0;exitDy=0;" parent="1" source="nzGZyDX1oVs2PWnSbx05-72" target="nzGZyDX1oVs2PWnSbx05-64" edge="1">
          <mxGeometry width="50" height="50" relative="1" as="geometry">
            <mxPoint x="91" y="520" as="sourcePoint" />
            <mxPoint x="148" y="542" as="targetPoint" />
          </mxGeometry>
        </mxCell>
        <mxCell id="nzGZyDX1oVs2PWnSbx05-81" value="Расширить" style="edgeLabel;html=1;align=center;verticalAlign=middle;resizable=0;points=[];" parent="nzGZyDX1oVs2PWnSbx05-80" vertex="1" connectable="0">
          <mxGeometry x="0.0781" y="-2" relative="1" as="geometry">
            <mxPoint y="-1" as="offset" />
          </mxGeometry>
        </mxCell>
        <mxCell id="nzGZyDX1oVs2PWnSbx05-82" value="" style="endArrow=classic;html=1;rounded=0;exitX=1;exitY=0.5;exitDx=0;exitDy=0;entryX=0;entryY=1;entryDx=0;entryDy=0;" parent="1" source="nzGZyDX1oVs2PWnSbx05-73" target="nzGZyDX1oVs2PWnSbx05-64" edge="1">
          <mxGeometry width="50" height="50" relative="1" as="geometry">
            <mxPoint x="30" y="570" as="sourcePoint" />
            <mxPoint x="130" y="570" as="targetPoint" />
          </mxGeometry>
        </mxCell>
        <mxCell id="nzGZyDX1oVs2PWnSbx05-83" value="Расширить" style="edgeLabel;html=1;align=center;verticalAlign=middle;resizable=0;points=[];" parent="nzGZyDX1oVs2PWnSbx05-82" vertex="1" connectable="0">
          <mxGeometry x="0.0781" y="-2" relative="1" as="geometry">
            <mxPoint y="-1" as="offset" />
          </mxGeometry>
        </mxCell>
        <mxCell id="nzGZyDX1oVs2PWnSbx05-86" value="" style="endArrow=classic;html=1;rounded=0;exitX=0;exitY=1;exitDx=0;exitDy=0;entryX=1;entryY=0;entryDx=0;entryDy=0;" parent="1" source="nzGZyDX1oVs2PWnSbx05-74" target="nzGZyDX1oVs2PWnSbx05-63" edge="1">
          <mxGeometry width="50" height="50" relative="1" as="geometry">
            <mxPoint x="564" y="430" as="sourcePoint" />
            <mxPoint x="512" y="398" as="targetPoint" />
          </mxGeometry>
        </mxCell>
        <mxCell id="nzGZyDX1oVs2PWnSbx05-87" value="Расширить" style="edgeLabel;html=1;align=center;verticalAlign=middle;resizable=0;points=[];" parent="nzGZyDX1oVs2PWnSbx05-86" vertex="1" connectable="0">
          <mxGeometry x="-0.0444" y="-1" relative="1" as="geometry">
            <mxPoint as="offset" />
          </mxGeometry>
        </mxCell>
        <mxCell id="nzGZyDX1oVs2PWnSbx05-88" value="" style="endArrow=classic;html=1;rounded=0;exitX=0;exitY=0.5;exitDx=0;exitDy=0;entryX=1;entryY=0.5;entryDx=0;entryDy=0;" parent="1" source="nzGZyDX1oVs2PWnSbx05-75" target="nzGZyDX1oVs2PWnSbx05-63" edge="1">
          <mxGeometry width="50" height="50" relative="1" as="geometry">
            <mxPoint x="622" y="535" as="sourcePoint" />
            <mxPoint x="552" y="542" as="targetPoint" />
          </mxGeometry>
        </mxCell>
        <mxCell id="nzGZyDX1oVs2PWnSbx05-89" value="Расширить" style="edgeLabel;html=1;align=center;verticalAlign=middle;resizable=0;points=[];" parent="nzGZyDX1oVs2PWnSbx05-88" vertex="1" connectable="0">
          <mxGeometry x="-0.0444" y="-1" relative="1" as="geometry">
            <mxPoint as="offset" />
          </mxGeometry>
        </mxCell>
        <mxCell id="nzGZyDX1oVs2PWnSbx05-92" value="" style="endArrow=classic;html=1;rounded=0;exitX=0;exitY=0;exitDx=0;exitDy=0;entryX=1;entryY=1;entryDx=0;entryDy=0;" parent="1" source="nzGZyDX1oVs2PWnSbx05-76" target="nzGZyDX1oVs2PWnSbx05-63" edge="1">
          <mxGeometry width="50" height="50" relative="1" as="geometry">
            <mxPoint x="630" y="616.67" as="sourcePoint" />
            <mxPoint x="560" y="623.67" as="targetPoint" />
          </mxGeometry>
        </mxCell>
        <mxCell id="nzGZyDX1oVs2PWnSbx05-93" value="Расширить" style="edgeLabel;html=1;align=center;verticalAlign=middle;resizable=0;points=[];" parent="nzGZyDX1oVs2PWnSbx05-92" vertex="1" connectable="0">
          <mxGeometry x="-0.0444" y="-1" relative="1" as="geometry">
            <mxPoint as="offset" />
          </mxGeometry>
        </mxCell>
        <mxCell id="nzGZyDX1oVs2PWnSbx05-94" value="Создать видеокарту" style="ellipse;whiteSpace=wrap;html=1;" parent="1" vertex="1">
          <mxGeometry x="-40" y="670" width="80" height="53.33" as="geometry" />
        </mxCell>
        <mxCell id="nzGZyDX1oVs2PWnSbx05-95" value="Удалить видеокарту" style="ellipse;whiteSpace=wrap;html=1;" parent="1" vertex="1">
          <mxGeometry x="-30" y="733.33" width="80" height="53.33" as="geometry" />
        </mxCell>
        <mxCell id="nzGZyDX1oVs2PWnSbx05-96" value="Обновить видеокарту" style="ellipse;whiteSpace=wrap;html=1;" parent="1" vertex="1">
          <mxGeometry x="-20" y="799.9999999999999" width="80" height="53.33" as="geometry" />
        </mxCell>
        <mxCell id="nzGZyDX1oVs2PWnSbx05-98" value="Удалить&lt;div&gt;отзыв&lt;br&gt;&lt;/div&gt;" style="ellipse;whiteSpace=wrap;html=1;" parent="1" vertex="1">
          <mxGeometry x="630" y="733.3299999999999" width="80" height="53.33" as="geometry" />
        </mxCell>
        <mxCell id="nzGZyDX1oVs2PWnSbx05-100" value="" style="endArrow=classic;html=1;rounded=0;exitX=1;exitY=0.5;exitDx=0;exitDy=0;entryX=0;entryY=0.5;entryDx=0;entryDy=0;" parent="1" source="nzGZyDX1oVs2PWnSbx05-94" target="nzGZyDX1oVs2PWnSbx05-66" edge="1">
          <mxGeometry width="50" height="50" relative="1" as="geometry">
            <mxPoint x="50" y="637" as="sourcePoint" />
            <mxPoint x="148" y="598" as="targetPoint" />
          </mxGeometry>
        </mxCell>
        <mxCell id="nzGZyDX1oVs2PWnSbx05-101" value="Расширить" style="edgeLabel;html=1;align=center;verticalAlign=middle;resizable=0;points=[];" parent="nzGZyDX1oVs2PWnSbx05-100" vertex="1" connectable="0">
          <mxGeometry x="0.0781" y="-2" relative="1" as="geometry">
            <mxPoint y="-1" as="offset" />
          </mxGeometry>
        </mxCell>
        <mxCell id="nzGZyDX1oVs2PWnSbx05-102" value="" style="endArrow=classic;html=1;rounded=0;exitX=1;exitY=0;exitDx=0;exitDy=0;entryX=0;entryY=1;entryDx=0;entryDy=0;" parent="1" source="nzGZyDX1oVs2PWnSbx05-95" target="nzGZyDX1oVs2PWnSbx05-66" edge="1">
          <mxGeometry width="50" height="50" relative="1" as="geometry">
            <mxPoint x="110" y="707" as="sourcePoint" />
            <mxPoint x="160" y="740" as="targetPoint" />
          </mxGeometry>
        </mxCell>
        <mxCell id="nzGZyDX1oVs2PWnSbx05-103" value="Расширить" style="edgeLabel;html=1;align=center;verticalAlign=middle;resizable=0;points=[];" parent="nzGZyDX1oVs2PWnSbx05-102" vertex="1" connectable="0">
          <mxGeometry x="0.0781" y="-2" relative="1" as="geometry">
            <mxPoint y="-1" as="offset" />
          </mxGeometry>
        </mxCell>
        <mxCell id="nzGZyDX1oVs2PWnSbx05-104" value="" style="endArrow=classic;html=1;rounded=0;exitX=1;exitY=0;exitDx=0;exitDy=0;entryX=0.5;entryY=1;entryDx=0;entryDy=0;" parent="1" source="nzGZyDX1oVs2PWnSbx05-96" target="nzGZyDX1oVs2PWnSbx05-66" edge="1">
          <mxGeometry width="50" height="50" relative="1" as="geometry">
            <mxPoint x="78" y="755" as="sourcePoint" />
            <mxPoint x="148" y="718" as="targetPoint" />
          </mxGeometry>
        </mxCell>
        <mxCell id="nzGZyDX1oVs2PWnSbx05-105" value="Расширить" style="edgeLabel;html=1;align=center;verticalAlign=middle;resizable=0;points=[];" parent="nzGZyDX1oVs2PWnSbx05-104" vertex="1" connectable="0">
          <mxGeometry x="0.0781" y="-2" relative="1" as="geometry">
            <mxPoint y="-1" as="offset" />
          </mxGeometry>
        </mxCell>
        <mxCell id="QPcvespcQ7UyI_m5GRw2-4" value="" style="endArrow=classic;html=1;rounded=0;exitX=0;exitY=0.5;exitDx=0;exitDy=0;entryX=1;entryY=1;entryDx=0;entryDy=0;" edge="1" parent="1" source="nzGZyDX1oVs2PWnSbx05-98" target="nzGZyDX1oVs2PWnSbx05-65">
          <mxGeometry width="50" height="50" relative="1" as="geometry">
            <mxPoint x="650" y="707" as="sourcePoint" />
            <mxPoint x="570" y="690" as="targetPoint" />
          </mxGeometry>
        </mxCell>
        <mxCell id="QPcvespcQ7UyI_m5GRw2-5" value="Расширить" style="edgeLabel;html=1;align=center;verticalAlign=middle;resizable=0;points=[];" vertex="1" connectable="0" parent="QPcvespcQ7UyI_m5GRw2-4">
          <mxGeometry x="-0.0444" y="-1" relative="1" as="geometry">
            <mxPoint as="offset" />
          </mxGeometry>
        </mxCell>
      </root>
    </mxGraphModel>
  </diagram>
</mxfile>
